<svg viewBox="0 0 21 25" fill="none" xmlns="http://www.w3.org/2000/svg">
<path fill-rule="evenodd" clip-rule="evenodd" d="M13.4382 1.23612L12.7833 3.54492C11.0617 3.05665 9.3117 3.02559 8.06437 4.08292C6.93371 5.04265 6.55984 7.23292 7.64451 8.63266C8.3881 9.59146 9.67624 10.0953 10.8734 9.89265C12.0785 9.68919 12.9384 9.05839 13.3086 8.15799C13.701 7.20372 13.5494 6.00999 12.8664 4.80919L14.9525 3.62252C16.0602 5.56999 16.1646 7.52305 15.5282 9.07065C14.8698 10.672 13.4165 11.8971 11.2736 12.2591C9.22517 12.6057 7.02011 11.7441 5.74771 10.1031C3.87517 7.68679 4.55984 3.90932 6.51184 2.25279L6.5121 2.25252C8.35037 0.693855 10.9008 0.516254 13.4382 1.23612Z" fill="#F4EFD7"/>
<path fill-rule="evenodd" clip-rule="evenodd" d="M20.0954 24.1308L17.8381 24.9463C17.2992 23.4545 16.7197 21.0659 15.5489 19.0541C14.5429 17.3253 13.0668 15.8739 10.6158 15.8705C8.62637 15.8679 7.0857 16.8888 5.8985 18.2133C3.9337 20.4055 2.89557 23.4339 2.51904 24.8353L0.201172 24.2124C0.634239 22.6011 1.85237 19.1319 4.1113 16.6115C5.7401 14.7943 7.88957 13.4668 10.619 13.4705C14.0669 13.4752 16.208 15.4151 17.6233 17.8469C18.8738 19.996 19.5197 22.5372 20.0954 24.1308Z" fill="#F4EFD7"/>
</svg>
