<?xml version="1.0" encoding="UTF-8"?><svg id="Lager_1" xmlns="http://www.w3.org/2000/svg" viewBox="0 0 1000 195.51"><defs><style>.cls-1{fill:#f4efd7;}</style></defs><path class="cls-1" d="M585.87,104.82c-.67-.14-1.08-.32-1.27-.44-1.16-4.57,2.22-25.64,23.17-75.44l-15.77-6.64c-31.86,75.75-24.89,86.6-21.9,91.24,1.85,2.87,5.47,6.59,12.24,8.03,1.94,.41,4,.59,6.16,.59,18.4,0,43.1-13.56,47.74-16.61l-9.42-14.29c-8.77,5.78-31.53,15.56-40.94,13.57Z"/><path class="cls-1" d="M535.64,.28c-3.73,8.75-19.87,51.67-24.78,86.64l16.95,2.38c4.68-33.29,20.63-75.4,23.57-82.31l-15.74-6.71Z"/><path class="cls-1" d="M567.77,0c-.22,.47-22.24,48.27-30.23,95.94l16.88,2.83c7.61-45.42,28.63-91.06,28.84-91.5l-15.49-7.27Z"/><path class="cls-1" d="M514.88,23.79l-15.88-6.43c-13.84,34.2-19.46,61.73-17.18,84.17,2.05,20.23,10.23,33.42,16.79,44.02,8.59,13.87,14.27,23.04,5.91,43.46l15.86,6.49c11.66-28.51,2.07-43.99-7.21-58.97-12.45-20.1-26.56-42.88,1.7-112.74Z"/><path class="cls-1" d="M745.63,46.78c-4.93,0-9.8,0-14.67,0v15.76c4.91,0,9.75,0,14.67,0v-15.76Z"/><path class="cls-1" d="M772.79,46.77c-4.93,0-9.8,0-14.68,0v15.74c4.93,0,9.8,0,14.68,0v-15.74Z"/><rect class="cls-1" x="237.14" y="45.68" width="15.8" height="16.17"/><g><path class="cls-1" d="M52.92,86.71c-3.83-1.66-8.7-3.29-14.6-4.87-3.83-1-6.84-1.91-9.05-2.75-2.21-.83-4.06-1.98-5.55-3.43-1.5-1.45-2.25-3.35-2.25-5.68,0-1.58,.52-3.01,1.56-4.31,1.04-1.29,2.45-2.29,4.24-3,1.79-.71,3.85-1.06,6.18-1.06,3.74,0,7.61,.87,11.61,2.62,3.99,1.75,7.53,4.16,10.61,7.24l9.61-12.98c-3.08-3.74-7.53-6.84-13.35-9.3-5.82-2.45-11.52-3.68-17.1-3.68s-11,1.14-15.54,3.43c-4.54,2.29-8.09,5.37-10.67,9.24-2.58,3.87-3.87,8.22-3.87,13.04,0,5.82,1.37,10.46,4.12,13.92,2.75,3.45,6.03,5.97,9.86,7.55,3.83,1.58,8.65,3.12,14.48,4.62,3.83,1,6.86,1.89,9.11,2.68,2.25,.79,4.08,1.89,5.49,3.31,1.41,1.42,2.12,3.2,2.12,5.37s-.6,3.93-1.81,5.55c-1.21,1.62-2.91,2.87-5.12,3.74-2.21,.87-4.76,1.31-7.68,1.31-4.91,0-9.34-1.04-13.29-3.12-3.95-2.08-7.76-4.99-11.42-8.74L0,119.54c2.58,3.08,5.76,5.8,9.55,8.17,3.79,2.37,7.93,4.24,12.42,5.62,4.49,1.37,8.94,2.06,13.35,2.06,6.49,0,12.13-1.25,16.91-3.74,4.78-2.5,8.44-5.8,10.98-9.92,2.54-4.12,3.81-8.51,3.81-13.17,0-5.82-1.39-10.5-4.18-14.04-2.79-3.54-6.1-6.14-9.92-7.8Z"/><polygon class="cls-1" points="110.31 72.98 95.33 112.8 80.35 72.98 63.13 72.98 88.59 134.14 102.19 134.14 127.65 72.98 110.31 72.98"/><path class="cls-1" d="M171.27,75.6c-4.49-2.58-9.44-3.87-14.85-3.87-5.82,0-11.15,1.39-15.98,4.18-4.83,2.79-8.65,6.6-11.48,11.42-2.83,4.83-4.24,10.15-4.24,15.98s1.44,11.42,4.31,16.29,6.74,8.72,11.61,11.54c4.87,2.83,10.21,4.24,16.04,4.24,6.32,0,11.92-1.14,16.79-3.43,4.87-2.29,8.42-5.47,10.67-9.55l-12.48-7.74c-1.17,2.16-3.1,3.87-5.8,5.12-2.7,1.25-5.64,1.87-8.8,1.87-3.49,0-6.57-.73-9.24-2.18-2.66-1.45-4.68-3.62-6.05-6.49-.8-1.67-1.36-3.53-1.69-5.55h45.31c.33-2.25,.5-4.41,.5-6.49,0-5.41-1.31-10.34-3.93-14.79-2.62-4.45-6.18-7.97-10.67-10.55Zm-30.88,20.97c.28-1.17,.66-2.28,1.12-3.31,1.21-2.7,3.04-4.76,5.49-6.18,2.45-1.41,5.35-2.12,8.67-2.12,2.41,0,4.66,.48,6.74,1.44,2.08,.96,3.76,2.33,5.05,4.12,1.29,1.79,2.1,3.81,2.43,6.05h-29.51Z"/><path class="cls-1" d="M215.27,74.36c-2.83,1.65-4.95,3.79-6.36,6.41v-7.78h-15.85v61.15h15.85v-38.04c1.48-2.86,3.54-5.18,6.18-6.95,2.79-1.87,5.35-2.81,7.68-2.81,2.75,0,5.28,.42,7.61,1.25l.87-14.73c-2.08-.75-4.49-1.12-7.24-1.12s-5.74,.87-8.74,2.62Z"/><rect class="cls-1" x="237.12" y="72.98" width="15.85" height="61.15"/><path class="cls-1" d="M307.16,80.52c-1.51-2.49-3.98-4.56-7.43-6.22-3.54-1.7-7.3-2.56-11.29-2.56-5.33,0-10.19,1.37-14.6,4.12-4.41,2.75-7.88,6.49-10.42,11.23-2.54,4.74-3.81,9.94-3.81,15.6s1.27,10.86,3.81,15.6c2.54,4.74,6.01,8.51,10.42,11.3,4.41,2.79,9.28,4.18,14.6,4.18,3.99,0,7.76-.85,11.29-2.56,3.44-1.66,5.92-3.73,7.43-6.22v6.41c0,2.75-.69,5.16-2.06,7.24-1.37,2.08-3.24,3.7-5.62,4.87-2.37,1.16-4.97,1.75-7.8,1.75-3.74,0-7.34-.58-10.8-1.75-3.45-1.17-6.43-2.79-8.92-4.87l-7.61,10.86c2.75,3.08,6.72,5.51,11.92,7.3,5.2,1.79,10.5,2.68,15.91,2.68,5.91,0,11.19-1.14,15.85-3.43,4.66-2.29,8.32-5.53,10.98-9.73,2.66-4.2,3.99-9.09,3.99-14.66v-58.78h-15.85v7.66Zm-6.3,36.34c-2.79,1.54-5.8,2.31-9.05,2.31s-5.91-.71-8.49-2.12c-2.58-1.41-4.6-3.39-6.05-5.93-1.46-2.54-2.18-5.35-2.18-8.42s.73-5.89,2.18-8.42c1.45-2.54,3.47-4.53,6.05-5.99,2.58-1.45,5.41-2.18,8.49-2.18,3.33,0,6.38,.81,9.17,2.43,2.71,1.58,4.76,3.57,6.18,5.97v16.5c-1.49,2.41-3.59,4.36-6.3,5.86Z"/><path class="cls-1" d="M375.72,75.6c-4.49-2.58-9.44-3.87-14.85-3.87-5.82,0-11.15,1.39-15.98,4.18-4.83,2.79-8.65,6.6-11.48,11.42-2.83,4.83-4.24,10.15-4.24,15.98s1.44,11.42,4.31,16.29,6.74,8.72,11.61,11.54c4.87,2.83,10.21,4.24,16.04,4.24,6.32,0,11.92-1.14,16.79-3.43,4.87-2.29,8.42-5.47,10.67-9.55l-12.48-7.74c-1.17,2.16-3.1,3.87-5.8,5.12-2.7,1.25-5.64,1.87-8.8,1.87-3.49,0-6.57-.73-9.24-2.18-2.66-1.45-4.68-3.62-6.05-6.49-.8-1.67-1.36-3.53-1.69-5.55h45.31c.33-2.25,.5-4.41,.5-6.49,0-5.41-1.31-10.34-3.93-14.79-2.62-4.45-6.18-7.97-10.67-10.55Zm-30.88,20.97c.28-1.17,.66-2.28,1.12-3.31,1.21-2.7,3.04-4.76,5.49-6.18,2.45-1.41,5.35-2.12,8.67-2.12,2.41,0,4.66,.48,6.74,1.44,2.08,.96,3.76,2.33,5.05,4.12,1.29,1.79,2.1,3.81,2.43,6.05h-29.51Z"/><path class="cls-1" d="M441.29,105.93c-2.25-2.58-4.91-4.47-7.99-5.68-3.08-1.21-6.86-2.35-11.36-3.43-2.41-.58-4.45-1.14-6.12-1.68-1.67-.54-2.98-1.25-3.93-2.12-.96-.87-1.44-1.98-1.44-3.31,0-1.75,.79-3.16,2.37-4.24,1.58-1.08,3.66-1.62,6.24-1.62,3.25,0,6.61,.6,10.11,1.81,3.49,1.21,6.37,2.77,8.61,4.68l4.87-11.36c-2.83-2.41-6.24-4.22-10.23-5.43-3.99-1.21-8.24-1.81-12.73-1.81s-8.82,.85-12.48,2.56c-3.66,1.71-6.51,4.08-8.55,7.11-2.04,3.04-3.06,6.43-3.06,10.17,.08,4.24,1.23,7.61,3.43,10.11,2.2,2.5,4.8,4.29,7.8,5.37,3,1.08,6.7,2.08,11.11,3,2.41,.42,4.47,.87,6.18,1.37,1.7,.5,3.06,1.21,4.06,2.12,1,.92,1.5,2.12,1.5,3.62,0,1.75-.92,3.2-2.75,4.37-1.83,1.17-4.29,1.75-7.36,1.75-3.74,0-7.43-.58-11.05-1.75-3.62-1.16-6.8-2.87-9.55-5.12l-4.87,11.11c3.49,2.58,7.53,4.54,12.11,5.87,4.57,1.33,9.44,2,14.6,2,4.66,0,8.8-.81,12.42-2.43,3.62-1.62,6.45-3.91,8.49-6.86,2.04-2.95,3.06-6.26,3.06-9.92-.08-4.24-1.25-7.65-3.49-10.23Z"/></g><g><polygon class="cls-1" points="677.4 46.77 660.68 46.77 660.68 134.14 718.21 134.14 718.21 118.16 677.4 118.16 677.4 46.77"/><path class="cls-1" d="M767.54,80.76c-1.51-2.57-3.98-4.7-7.43-6.4-3.54-1.75-7.3-2.62-11.29-2.62-5.33,0-10.19,1.39-14.6,4.18-4.41,2.79-7.88,6.64-10.42,11.54-2.54,4.91-3.81,10.28-3.81,16.1s1.27,11.07,3.81,15.98c2.54,4.91,6.01,8.78,10.42,11.61,4.41,2.83,9.28,4.24,14.6,4.24,3.99,0,7.76-.85,11.29-2.56,3.44-1.66,5.92-3.81,7.43-6.46v7.77h15.85v-61.15h-15.85v7.78Zm-6.3,37.22c-2.79,1.62-5.8,2.43-9.05,2.43s-5.91-.75-8.49-2.25c-2.58-1.5-4.6-3.51-6.05-6.05-1.46-2.54-2.18-5.39-2.18-8.55s.73-6.03,2.18-8.61c1.45-2.58,3.47-4.6,6.05-6.05,2.58-1.45,5.41-2.18,8.49-2.18,3.33,0,6.38,.81,9.17,2.43,2.71,1.58,4.76,3.61,6.18,6.09v16.75c-1.49,2.41-3.59,4.41-6.3,5.98Z"/><path class="cls-1" d="M822.83,71.74c-2.83,0-5.74,.87-8.74,2.62-2.83,1.65-4.95,3.79-6.36,6.41v-7.78h-15.85v61.15h15.85v-38.04c1.48-2.86,3.54-5.18,6.18-6.95,2.79-1.87,5.35-2.81,7.68-2.81,2.75,0,5.28,.42,7.61,1.25l.87-14.73c-2.08-.75-4.49-1.12-7.24-1.12Z"/><path class="cls-1" d="M877.23,80.76c-1.51-2.57-3.98-4.7-7.43-6.4-3.54-1.75-7.3-2.62-11.29-2.62-5.33,0-10.19,1.39-14.6,4.18-4.41,2.79-7.88,6.64-10.42,11.54-2.54,4.91-3.81,10.28-3.81,16.1s1.27,11.07,3.81,15.98c2.54,4.91,6.01,8.78,10.42,11.61,4.41,2.83,9.28,4.24,14.6,4.24,3.99,0,7.76-.85,11.29-2.56,3.44-1.66,5.92-3.81,7.43-6.46v7.77h15.85v-61.15h-15.85v7.78Zm-6.3,37.22c-2.79,1.62-5.8,2.43-9.05,2.43s-5.91-.75-8.49-2.25c-2.58-1.5-4.6-3.51-6.05-6.05-1.46-2.54-2.18-5.39-2.18-8.55s.73-6.03,2.18-8.61c1.45-2.58,3.47-4.6,6.05-6.05,2.58-1.45,5.41-2.18,8.49-2.18,3.33,0,6.38,.81,9.17,2.43,2.71,1.58,4.76,3.61,6.18,6.09v16.75c-1.49,2.41-3.59,4.41-6.3,5.98Z"/><path class="cls-1" d="M939.75,72.86c-2.08-.75-4.49-1.12-7.24-1.12s-5.74,.87-8.74,2.62c-2.83,1.65-4.95,3.79-6.36,6.41v-7.78h-15.85v61.15h15.85v-38.04c1.48-2.85,3.54-5.18,6.18-6.95,2.79-1.87,5.35-2.81,7.68-2.81,2.75,0,5.28,.42,7.61,1.25l.87-14.73Z"/><path class="cls-1" d="M1000,100.94c0-5.41-1.31-10.34-3.93-14.79-2.62-4.45-6.18-7.97-10.67-10.55-4.49-2.58-9.44-3.87-14.85-3.87-5.83,0-11.15,1.39-15.98,4.18-4.83,2.79-8.65,6.6-11.48,11.42-2.83,4.83-4.24,10.15-4.24,15.98s1.44,11.42,4.31,16.29,6.74,8.72,11.61,11.54c4.87,2.83,10.21,4.24,16.04,4.24,6.32,0,11.92-1.14,16.79-3.43,4.87-2.29,8.42-5.47,10.67-9.55l-12.48-7.74c-1.17,2.16-3.1,3.87-5.8,5.12-2.7,1.25-5.64,1.87-8.8,1.87-3.49,0-6.57-.73-9.24-2.18-2.66-1.45-4.68-3.62-6.05-6.49-.8-1.67-1.36-3.53-1.69-5.55h45.31c.33-2.25,.5-4.41,.5-6.49Zm-45.49-4.37c.28-1.17,.66-2.28,1.12-3.31,1.21-2.7,3.04-4.76,5.49-6.18,2.45-1.41,5.35-2.12,8.67-2.12,2.41,0,4.66,.48,6.74,1.44,2.08,.96,3.76,2.33,5.05,4.12,1.29,1.79,2.1,3.81,2.43,6.05h-29.51Z"/></g></svg>